<?xml version="1.0" encoding="utf-8"?>
<!-- Generator: Adobe Illustrator 17.0.0, SVG Export Plug-In . SVG Version: 6.00 Build 0)  -->
<!DOCTYPE svg PUBLIC "-//W3C//DTD SVG 1.1//EN" "http://www.w3.org/Graphics/SVG/1.1/DTD/svg11.dtd">
<svg version="1.1" id="Layer_1" xmlns="http://www.w3.org/2000/svg" xmlns:xlink="http://www.w3.org/1999/xlink" x="0px" y="0px"
	 width="290.385px" height="105.769px" viewBox="0 0 290.385 105.769" enable-background="new 0 0 290.385 105.769"
	 xml:space="preserve">
<g>
	<g>
		<g id="eo8NhG_3_">
			<g>
				<path fill="#FFFFFF" d="M131.864,95.258c-1.573-0.805-3.335-1.377-4.679-2.464c-2.736-2.213-3.595-5.477-3.637-8.799
					c-0.032-2.559,0.549-5.131,0.933-7.686c0.071-0.474,0.437-0.946,0.768-1.332c2.295-2.681,5.141-4.25,8.751-4.151
					c4.394,0.121,8.786,0.333,13.181,0.408c4.874,0.084,9.707,0.604,14.557,1.015c5.201,0.44,10.447,0.363,15.673,0.487
					c3.677,0.087,7.354,0.164,11.032,0.174c0.854,0.002,1.729-0.221,2.56-0.461c1.021-0.294,1.579-1.011,1.595-2.126
					c0.017-1.127-0.854-1.321-1.626-1.625c-3.598-1.415-7.26-2.69-10.781-4.277c-3.281-1.478-4.259-5.818-2.228-8.861
					c0.177-0.265,0.386-0.508,0.646-0.846c-1.569-2.338-1.943-4.978-1.485-7.73c0.869-5.216,3.662-7.847,8.938-8.098
					c4.026-0.192,8.069-0.036,12.104-0.04c0.856-0.001,1.287,0.423,1.482,1.252c0.514,2.187,0.069,3.178-2.018,4.151
					c1.201,2.17,1.437,4.487,1.016,6.913c-0.665,3.831-2.977,6.287-6.771,7.15c-2.834,0.644-5.667,0.819-8.569-0.044
					c-0.119,0.888,0.312,1.121,0.957,1.308c3.293,0.955,6.568,1.973,9.862,2.926c4.734,1.369,6.24,5.51,5.849,8.88
					c-0.487,4.202-3.558,7.291-7.858,7.507c-4.096,0.206-8.213,0.012-12.32-0.029c-3.677-0.037-7.359-0.014-11.03-0.191
					c-3.024-0.145-6.036-0.545-9.054-0.828c-0.516-0.048-1.045-0.158-1.549-0.094c-3.662,0.463-7.247-0.204-10.849-0.663
					c-1.307-0.166-2.518-0.097-3.783,0.641c-0.855,0.498-2.157,0.456-3.22,0.331c-3.81-0.451-7.244,0.137-10.004,3.054
					c-2.459,2.6-2.218,4.221,1.046,5.745c1.086,0.507,2.364,0.655,3.574,0.83c0.906,0.131,1.413-0.454,1.478-1.344
					c0.052-0.717,0.014-1.439,0.041-2.158c0.06-1.607,1.216-2.93,2.664-3.069c1.44-0.139,2.822,0.806,3.076,2.393
					c0.268,1.675,0.56,3.437,0.32,5.085c-0.552,3.786-3.326,5.501-6.745,6.417c-0.262,0.07-0.516,0.167-0.774,0.252
					C133.944,95.258,132.904,95.258,131.864,95.258z M192.094,48.514c0.038-2.502-1.485-3.827-4.405-3.833
					c-2.561-0.005-4.017,1.575-4.031,4.372c-0.011,2.238,1.671,3.903,4.18,3.739C190.666,52.608,191.848,52.011,192.094,48.514z"/>
				<path fill="#FFFFFF" d="M275.144,62.138c-0.104,1.925-1.221,2.649-3.039,3.002c-3.673,0.712-7.311,1.211-11.038,0.446
					c-4.15-0.852-6.599-3.416-7.437-7.467c-0.842-4.07-0.853-8.172,0.152-12.235c1.13-4.567,4.414-7.197,9.132-7.304
					c1.788-0.04,3.579-0.007,5.446-0.007c0.021-0.46,0.054-0.805,0.049-1.15c-0.077-5.233-0.165-13.467-0.238-18.7
					c-0.024-1.7,0.277-2.044,1.939-2.19c0.874-0.077,1.76-0.03,2.633-0.117c1.184-0.117,2.013,0.274,2.4,1.442
					C275.144,31.618,275.144,48.378,275.144,62.138z M267.625,59.684c0.245-5.369,0.482-10.556,0.726-15.901
					c-1.735,0.124-3.365,0.173-4.976,0.373c-1.627,0.202-2.833,1.359-2.91,2.998c-0.15,3.183-0.181,6.375-0.139,9.561
					c0.018,1.418,0.769,2.695,2.218,2.911C264.197,59.874,265.916,59.684,267.625,59.684z"/>
				<path fill="#FFFFFF" d="M109.594,39.426c2.027-0.464,3.971-1.046,5.956-1.322c1.667-0.231,3.256,0.388,4.604,1.387
					c0.658,0.488,1.133,0.417,1.812,0.103c2.549-1.18,5.21-1.753,8.033-1.254c3.287,0.581,5.567,2.841,5.671,6.175
					c0.202,6.473,0.186,12.952,0.252,19.429c0.009,0.871-0.423,1.334-1.326,1.325c-1.04-0.011-2.08,0.005-3.12-0.001
					c-1.424-0.008-1.792-0.346-1.785-1.757c0.02-3.959,0.076-7.919,0.095-11.878c0.008-1.598,0.026-3.202-0.088-4.795
					c-0.178-2.513-1.216-3.326-3.699-2.941c-1.135,0.176-2.247,0.501-3.46,0.78c0.045,0.946,0.106,1.815,0.124,2.684
					c0.107,5.358,0.213,10.716,0.301,16.075c0.029,1.761-0.301,2.072-2.08,2.13c-0.719,0.023-1.439,0.05-2.157,0.09
					c-2.104,0.118-2.685-0.398-2.707-2.474c-0.051-4.599-0.084-9.198-0.134-13.797c-0.01-0.919-0.03-1.841-0.11-2.756
					c-0.16-1.825-0.989-2.41-2.722-1.976c-2.926,0.733-3,0.83-3.005,3.836c-0.008,4.959-0.013,9.919-0.027,14.878
					c-0.006,1.997-0.403,2.393-2.366,2.405c-0.8,0.005-1.6,0-2.4-0.004c-2.057-0.01-2.467-0.413-2.463-2.431
					c0.011-5.359,0.024-10.719,0.037-16.078c0.006-2.28,0.005-4.56,0.025-6.839c0.014-1.614,0.479-2.08,2.058-2.099
					c0.84-0.01,1.683,0.048,2.519-0.004C108.544,38.248,109.388,38.538,109.594,39.426z"/>
				<path fill="#FFFFFF" d="M72.327,39.803c3.917-2.099,7.621-2.615,11.111,0.031c2.024-0.543,3.945-1.272,5.929-1.547
					c4.864-0.676,9.019,1.479,9.119,7.575c0.096,5.875,0.074,11.752,0.078,17.629c0.001,1.641-0.166,1.769-1.813,1.777
					c-0.96,0.005-1.921-0.039-2.878,0.006c-1.089,0.051-1.545-0.484-1.536-1.504c0.013-1.559,0.069-3.118,0.063-4.677
					c-0.015-4.274,0.017-8.551-0.116-12.822c-0.056-1.79-1.072-2.516-2.865-2.465c-0.478,0.014-0.965,0.049-1.428,0.159
					c-0.887,0.211-1.759,0.482-2.578,0.711c0,2.507-0.022,4.937,0.005,7.367c0.043,3.878,0.132,7.755,0.176,11.633
					c0.018,1.528-0.275,1.809-1.809,1.879c-1.078,0.049-2.157,0.086-3.237,0.104c-1.15,0.02-1.793-0.487-1.804-1.714
					c-0.045-5.077-0.103-10.153-0.178-15.229c-0.013-0.875-0.071-1.759-0.221-2.62c-0.218-1.244-0.844-1.667-2.121-1.549
					c-0.396,0.036-0.792,0.106-1.179,0.198c-2.001,0.473-2.264,0.77-2.281,2.852c-0.043,5.158-0.056,10.315-0.083,15.473
					c-0.013,2.457-0.255,2.7-2.66,2.704c-0.76,0.001-1.519,0.005-2.279-0.001c-1.787-0.015-2.333-0.558-2.328-2.388
					c0.012-4.558,0.038-9.116,0.068-13.674c0.021-3.119,0.05-6.237,0.09-9.355c0.021-1.621,0.451-2.03,2.093-2.042
					c0.8-0.006,1.6,0.031,2.399,0.002C71.149,38.275,72.083,38.443,72.327,39.803z"/>
				<path fill="#FFFFFF" d="M209.078,38.661c1.69-0.119,3.162-0.273,4.638-0.318c6.687-0.205,11.041,3.913,11,10.604
					c-0.02,3.301-0.141,6.649-0.719,9.886c-0.735,4.122-4.208,6.842-8.392,7.137c-3.779,0.267-7.5-0.146-11.162-1.098
					c-1.542-0.401-1.854-0.912-1.837-2.865c0.102-11.915,0.207-15.471,0.308-27.386c0.014-1.599,0.027-3.199,0.013-4.798
					c-0.01-1.154,0.505-1.691,1.68-1.626c0.917,0.051,1.839,0.026,2.758,0.042c1.396,0.025,1.74,0.38,1.738,1.802
					c-0.007,5.158-0.017,1.956-0.025,7.114C209.077,37.626,209.078,38.095,209.078,38.661z M209.89,44.385
					c-0.245,5.332-0.483,10.533-0.716,15.6c1.471,0,2.822,0.001,4.173-0.001c0.16,0,0.321-0.007,0.479-0.028
					c1.625-0.216,3.093-1.231,3.157-2.661c0.16-3.583,0.153-7.178,0.067-10.764c-0.028-1.159-0.904-2.029-2.106-2.116
					C213.295,44.296,211.631,44.385,209.89,44.385z"/>
				<path fill="#FFFFFF" d="M157.588,40.387c1.028-0.429,1.874-0.763,2.705-1.132c2.15-0.954,4.406-1.103,6.696-0.835
					c3.109,0.363,5.132,2.33,5.865,5.768c0.29,1.359,0.475,2.766,0.492,4.154c0.062,5.037,0.039,10.074,0.033,15.111
					c-0.002,1.903-0.438,2.337-2.316,2.351c-1.119,0.008-2.238-0.011-3.357-0.044c-0.936-0.028-1.501-0.526-1.584-1.462
					c-0.074-0.833-0.103-1.674-0.099-2.511c0.026-4.797,0.088-9.594,0.096-14.391c0.004-2.411-0.79-3.132-3.207-3.073
					c-0.24,0.006-0.48,0.015-0.718,0.046c-0.276,0.036-0.553,0.079-0.822,0.15c-2.968,0.777-3.056,0.899-3.086,3.942
					c-0.049,4.917-0.095,9.834-0.169,14.751c-0.03,2.02-0.277,2.225-2.338,2.203c-0.879-0.009-1.758-0.043-2.638-0.054
					c-0.988-0.012-1.471-0.522-1.471-1.491c0.001-1.159,0.025-2.318,0.035-3.478c0.056-6.436,0.109-12.872,0.167-19.308
					c0.02-2.216,0.053-2.243,2.319-2.247c0.52-0.001,1.04,0.015,1.559-0.002C156.779,38.801,157.775,38.795,157.588,40.387z"/>
				<path fill="#FFFFFF" d="M55,63.28c-2.124,1.595-4.434,2.384-6.98,2.432c-4.742,0.088-7.828-2.592-8.017-7.322
					c-0.243-6.11-0.239-12.229-0.309-18.345c-0.015-1.277,0.646-1.884,1.937-1.922c0.999-0.029,1.999-0.017,2.999-0.008
					c1.714,0.016,2.326,0.586,2.327,2.295c0.002,5.038-0.038,10.076-0.039,15.115c0,0.713,0.049,1.442,0.204,2.135
					c0.367,1.641,1.344,2.354,2.959,1.998c1.353-0.298,2.684-0.771,3.955-1.326c0.344-0.15,0.605-0.876,0.615-1.343
					c0.096-4.437,0.131-8.875,0.181-13.313c0.01-0.88,0.007-1.759,0.019-2.639c0.031-2.196,0.315-2.476,2.503-2.475
					c0.64,0,1.28,0.008,1.919,0.017c1.9,0.025,2.078,0.194,2.073,2.061c-0.016,5.238-0.027,10.476-0.067,15.714
					c-0.019,2.439-0.129,4.876-0.141,7.315c-0.005,1.014-0.387,1.481-1.422,1.426c-0.798-0.042-1.599-0.018-2.399-0.017
					C55.493,65.079,55.493,65.08,55,63.28z"/>
				<path fill="#FFFFFF" d="M245.058,40.237c1.682-0.658,3.363-1.46,5.129-1.967c1.858-0.534,2.589,0.144,2.646,2.073
					c0.013,0.439,0.027,0.879,0.07,1.316c0.2,2.005-0.142,2.484-2.061,2.929c-1.281,0.297-2.544,0.679-3.835,0.919
					c-0.901,0.168-1.133,0.618-1.13,1.483c0.016,5.194-0.014,10.388-0.037,15.583c-0.013,2.968-0.217,3.16-3.237,3.11
					c-0.719-0.012-1.439-0.015-2.156-0.068c-1.042-0.076-1.591-0.634-1.577-1.711c0.107-7.91,0.211-15.821,0.316-23.731
					c0.012-0.928,0.451-1.396,1.414-1.356c0.798,0.033,1.598,0.018,2.397,0.022C244.782,38.846,244.782,38.846,245.058,40.237z"/>
				<path fill="#FFFFFF" d="M147.189,63.103c-0.013,1.983-0.442,2.349-2.458,2.286c-0.839-0.026-1.679-0.079-2.518-0.077
					c-1.046,0.003-1.539-0.462-1.511-1.532c0.04-1.519,0.073-3.041,0.03-4.559c-0.16-5.711-0.288-11.424-0.551-17.13
					c-0.206-4.48,0.697-3.995,3.719-3.986c3.549,0.011,3.607,0.068,3.599,3.644C147.491,45.108,147.214,59.345,147.189,63.103z"/>
				<path fill="#FFFFFF" d="M234.577,52.103c0,3.756,0.017,7.512-0.008,11.268c-0.011,1.623-0.469,2.034-2.11,2.022
					c-0.919-0.007-1.838-0.086-2.756-0.074c-1.175,0.015-1.65-0.535-1.618-1.692c0.088-3.236,0.253-6.475,0.169-9.708
					c-0.103-3.95-0.46-7.893-0.647-11.841c-0.181-3.834-0.014-3.975,3.832-3.976c0.24,0,0.48,0,0.719,0.001
					c2.297,0.011,2.775,0.506,2.773,2.849c-0.003,3.717-0.001,7.434-0.001,11.151C234.813,52.103,234.695,52.103,234.577,52.103z"/>
				<path fill="#FFFFFF" d="M234.575,32.12c0,0.16,0.004,0.319-0.001,0.479c-0.068,2.661-0.069,2.634-2.641,2.73
					c-0.787,0.029-1.564,0.28-2.352,0.377c-1.443,0.177-2.128-0.395-2.166-1.821c-0.029-1.076-0.036-2.156,0.017-3.231
					c0.067-1.36,0.607-1.887,1.933-1.893c1.156-0.006,2.317,0.019,3.468,0.116c1.555,0.13,1.833,0.491,1.789,2.048
					c-0.011,0.399-0.002,0.798-0.002,1.197C234.605,32.12,234.59,32.12,234.575,32.12z"/>
				<path fill="#FFFFFF" d="M140.026,32.296c0.003-3.521,0.101-3.615,3.646-3.515c3.638,0.102,3.642,0.106,3.518,3.743
					c-0.008,0.239-0.017,0.479-0.029,0.718c-0.104,2.072-0.18,2.114-2.205,2.09c-0.707-0.008-1.423,0.131-2.122,0.266
					c-2.235,0.431-2.81-0.038-2.809-2.344C140.025,32.934,140.025,32.615,140.026,32.296z"/>
			</g>
		</g>
		<g>
			<path fill="#FFFFFF" d="M21.572,40.589c2.132-1.178,4.285-1.681,6.568-1.673c5.058,0.018,8.134,2.866,8.295,8.134
				c0.178,5.799,0.073,11.608,0.095,17.412c0.003,0.903-0.439,1.268-1.288,1.247c-1.031-0.026-2.063-0.002-3.094-0.007
				c-1.344-0.007-1.6-0.259-1.602-1.659c-0.007-4.976,0.005-9.951-0.011-14.927c-0.003-0.823-0.089-1.648-0.171-2.468
				c-0.141-1.411-0.933-2.15-2.273-2.382c-2.225-0.386-4.221,0.344-6.138,1.354c-0.261,0.137-0.363,0.804-0.365,1.226
				c-0.023,5.686-0.015,11.373-0.016,17.059c0,1.703-0.096,1.797-1.773,1.798c-0.955,0.001-1.911-0.023-2.865,0.007
				c-0.9,0.028-1.333-0.341-1.332-1.315c0.012-11.057,0.012-35.07-0.002-46.127c-0.001-0.867,0.394-1.242,1.162-1.257
				c1.222-0.023,2.445-0.017,3.667-0.005c0.888,0.009,1.157,0.547,1.151,1.397c-0.022,2.764-0.008,18.485-0.008,21.249
				C21.572,39.917,21.572,40.18,21.572,40.589z"/>
			<g>
				<path fill="#FFFFFF" d="M36.814,45.422c0.107,0.532,0.158,1.097,0.211,1.677c0.029,0.561,0.058,1.144,0.089,1.744
					c0.058,1.202,0.108,2.483,0.114,3.825c0.014,1.047,0.028,2.088,0.041,3.125c-0.001,1.033-0.001,2.062-0.002,3.086
					c-0.001,1.024-0.002,2.043-0.003,3.059c-0.001,0.508-0.002,1.014-0.002,1.52l-0.001,0.758c-0.001,0.129,0.004,0.235-0.01,0.425
					c-0.006,0.086-0.01,0.169-0.02,0.256l-0.063,0.282c-0.095,0.375-0.378,0.826-0.778,1.035c-0.377,0.197-0.744,0.248-1.045,0.246
					c-0.493-0.001-0.984-0.001-1.475-0.002c-0.482-0.002-0.962-0.004-1.442-0.005c-0.234-0.002-0.489,0.001-0.768-0.019
					c-0.281-0.032-0.586-0.038-0.995-0.26c-0.207-0.11-0.387-0.291-0.515-0.493c-0.135-0.215-0.187-0.405-0.23-0.58
					c-0.075-0.347-0.08-0.624-0.087-0.896l0-1.496c0.002-0.988,0.004-1.972,0.006-2.955c0.005-1.965,0.01-3.92,0.016-5.868
					c0.003-0.974,0.007-1.946,0.01-2.917c0.003-0.97,0.02-1.954-0.034-2.862c-0.026-0.464-0.078-0.957-0.12-1.416
					c-0.046-0.399-0.159-0.749-0.346-1.022c-0.182-0.276-0.471-0.468-0.827-0.598c-0.166-0.08-0.374-0.105-0.565-0.157l-0.636-0.077
					c-0.852-0.062-1.715,0.045-2.561,0.284c-0.424,0.112-0.842,0.274-1.258,0.441l-0.62,0.274l-0.564,0.278
					c-0.03,0.013-0.047,0.04-0.06,0.074c-0.028,0.082-0.061,0.225-0.077,0.358c-0.008,0.067-0.016,0.138-0.019,0.205
					c-0.003,0.061-0.006,0.137-0.005,0.227l-0.004,0.507l-0.017,2.028c-0.012,1.353-0.023,2.707-0.035,4.064
					c-0.025,2.714-0.051,5.438-0.076,8.181c-0.007,0.686-0.014,1.372-0.02,2.06c-0.006,0.348-0.002,0.694-0.048,1.089
					c-0.011,0.098-0.032,0.203-0.062,0.321c-0.036,0.133-0.091,0.258-0.162,0.373c-0.143,0.231-0.39,0.379-0.639,0.445
					c-0.441,0.108-0.764,0.085-1.113,0.093l-1.005-0.007c-0.668-0.005-1.338-0.011-2.009-0.016
					c-0.362-0.005-0.802-0.014-1.205-0.319c-0.199-0.145-0.338-0.373-0.417-0.587c-0.073-0.214-0.11-0.431-0.113-0.628
					c-0.013-0.748,0.008-1.415,0.011-2.129c0.014-1.407,0.028-2.821,0.043-4.244c0.047-7.696,0.092-14.937,0.136-22.147l0.013-15.66
					l0.006-1.352l0.003-0.676c0-0.227,0.017-0.477,0.086-0.715c0.081-0.24,0.241-0.464,0.46-0.599
					c0.222-0.125,0.462-0.169,0.693-0.18c0.445-0.009,0.878,0,1.318-0.001c0.883,0.012,1.743-0.016,2.651,0.028
					c0.117,0,0.233,0.058,0.349,0.087c0.105,0.063,0.23,0.107,0.311,0.21c0.194,0.175,0.277,0.431,0.325,0.664
					c0.075,0.485,0.03,0.935,0.04,1.394c-0.004,0.917-0.007,14.794-0.011,15.719c-0.006,1.85-0.013,3.718-0.019,5.611
					c0.008-2.095,0.016-17.151,0.024-19.253c0-1.054,0.015-2.095-0.005-3.162c-0.024-0.269-0.06-0.558-0.228-0.802
					c-0.162-0.248-0.436-0.385-0.701-0.439c-0.272-0.033-0.525-0.025-0.779-0.021l-0.764,0.011c-0.51,0.008-1.017,0.017-1.522,0.025
					l-0.754,0.012c-0.248-0.001-0.513,0.022-0.75,0.124c-0.24,0.097-0.439,0.311-0.511,0.564c-0.082,0.249-0.09,0.513-0.085,0.767
					c0.007,0.512,0.014,1.021,0.021,1.529c0.028,2.032,0.056,16.996,0.084,19.004c0.058,4.017,0.116,8.04,0.177,12.281
					c0.058,3.826,0.123,8.08,0.19,12.456c0.006,0.264,0.001,0.57,0.017,0.8c0.001,0.235,0.067,0.413,0.134,0.519
					c0.062,0.1,0.17,0.155,0.371,0.182c0.086,0.024,0.206,0.012,0.311,0.018l0.396-0.004l1.615-0.019c0.534-0.01,1.096,0,1.58-0.029
					c0.12-0.008,0.234-0.021,0.322-0.041c0.077-0.016,0.092-0.026,0.128-0.053c0.029-0.026,0.05-0.062,0.059-0.101
					c0.013-0.047,0.033-0.174,0.041-0.285c0.03-0.487,0.014-1.064,0.019-1.609c0.006-1.101,0.011-2.196,0.017-3.281
					c0.02-2.801,0.039-5.399,0.056-7.79c0.006-1.195,0.012-2.339,0.018-3.429c0.002-0.545,0.005-1.077,0.007-1.596
					c-0.002-0.265,0.019-0.577,0.082-0.859c0.049-0.25,0.204-0.743,0.551-0.903c0.171-0.086,0.341-0.171,0.509-0.255
					c0.154-0.08,0.312-0.152,0.469-0.22c0.311-0.144,0.621-0.275,0.933-0.386c0.617-0.239,1.239-0.395,1.839-0.509
					c0.302-0.049,0.602-0.071,0.892-0.105c0.293-0.001,0.579-0.002,0.858-0.003c0.277,0.031,0.547,0.061,0.81,0.09
					c0.131,0.013,0.266,0.056,0.396,0.083c0.131,0.026,0.259,0.062,0.385,0.115c0.504,0.165,0.972,0.48,1.283,0.887
					c0.177,0.19,0.268,0.421,0.384,0.628c0.068,0.219,0.163,0.432,0.192,0.637c0.084,0.428,0.103,0.755,0.137,1.069
					c0.029,0.314,0.066,0.592,0.074,0.854c0.066,1.043,0.063,1.565,0.07,1.599c0.002,0.031,0.03-0.414-0.026-1.423
					c0.058,0.917,0.044,1.717,0.069,2.508c0.024,0.784,0.047,1.539,0.07,2.296c0.053,1.508,0.113,3.014,0.141,4.758
					c0.016,1.758,0.017,3.472,0.01,5.153c-0.002,0.415-0.003,0.827-0.005,1.238c0.004,0.184,0.011,0.369,0.035,0.496
					c0.011,0.064,0.025,0.114,0.035,0.139c0.008,0.023,0.006,0.015,0.007,0.022c0.008,0.002-0.008,0.003,0.027,0.016
					c0.024,0.014,0.08,0.03,0.145,0.043c0.128,0.028,0.304,0.041,0.483,0.047c0.392,0.007,0.783,0.014,1.173,0.021
					c0.394,0.007,0.786,0.014,1.178,0.02l0.586,0.011l0.292,0.005l0.22-0.002c0.068-0.003,0.116-0.02,0.177-0.023
					c0.038-0.019,0.087-0.026,0.111-0.043c0.049-0.031,0.074-0.049,0.108-0.124c0.023-0.027,0.024-0.099,0.044-0.145
					c0.012-0.059,0.011-0.136,0.02-0.203c0.009-0.17,0.008-0.389,0.013-0.581c0.024-1.586,0.047-3.158,0.07-4.725
					c-0.032-0.873-0.043-3.536-0.044-4.442c0.02-2.03,0.04-4.01,0.059-5.991l0.017-1.487c0.009-0.252-0.013-0.485-0.02-0.728
					c-0.007-0.241-0.019-0.483-0.055-0.72c-0.101-0.957-0.323-1.912-0.743-2.789c-0.413-0.878-1.015-1.676-1.794-2.299
					c-0.779-0.622-1.719-1.062-2.732-1.326c-1.014-0.27-2.102-0.348-3.217-0.317c-1.115,0.035-2.261,0.209-3.4,0.564
					c0.815-0.288,1.658-0.469,1.658-0.469c-0.863,0.142-1.509,0.29-2.134,0.505c-0.632,0.195-1.241,0.462-2.039,0.851
					c1.132-0.679,2.467-1.246,3.936-1.575c0.736-0.151,1.5-0.269,2.282-0.295c0.781-0.043,1.582-0.009,2.385,0.105
					c0.804,0.112,1.603,0.35,2.371,0.685c0.768,0.341,1.475,0.845,2.084,1.448c0.313,0.297,0.569,0.644,0.83,0.987
					c0.225,0.366,0.462,0.727,0.629,1.121c0.2,0.38,0.316,0.789,0.464,1.185C36.626,44.613,36.76,45.014,36.814,45.422z"/>
			</g>
		</g>
	</g>
	<g>
		<path fill="#FFFFFF" d="M59.858,15.974c-0.605,0-0.966,0.095-1.085,0.286c-0.081,0.133-0.121,0.519-0.121,1.157
			s0.039,1.089,0.118,1.353c0.079,0.264,0.219,0.522,0.421,0.775c0.202,0.252,0.303,0.451,0.303,0.596s-0.184,0.25-0.553,0.314
			c-0.369,0.064-1.222,0.096-2.56,0.096c-0.276,0-0.458-0.037-0.546-0.111c-0.088-0.074-0.132-0.227-0.132-0.461
			c0-0.086,0.12-0.227,0.361-0.425c0.24-0.198,0.389-0.399,0.446-0.603c0.057-0.205,0.086-1.332,0.086-3.381
			s-0.032-3.178-0.096-3.385c-0.064-0.207-0.261-0.413-0.589-0.618c-0.224-0.143-0.336-0.355-0.336-0.636l0.164-0.15
			c0.195-0.105,1.071-0.157,2.628-0.157c0.724,0,1.085,0.121,1.085,0.364c0,0.114-0.086,0.349-0.257,0.703s-0.284,0.64-0.339,0.857
			c-0.055,0.217-0.082,0.694-0.082,1.432c0,0.371,0.088,0.626,0.264,0.764c0.105,0.081,0.661,0.121,1.667,0.121
			c1.007,0,1.586-0.05,1.739-0.15c0.152-0.1,0.229-0.434,0.229-1.003c0-0.569-0.035-0.981-0.104-1.235s-0.199-0.522-0.389-0.803
			c-0.19-0.281-0.286-0.452-0.286-0.514c0-0.181,0.167-0.312,0.5-0.393c0.181-0.043,0.669-0.064,1.464-0.064
			c0.795,0,1.295,0.024,1.5,0.071c0.267,0.062,0.4,0.24,0.4,0.536c0,0.1-0.125,0.265-0.375,0.496
			c-0.25,0.231-0.394,0.394-0.432,0.489c-0.086,0.224-0.129,1.131-0.129,2.721L64.8,16.752l-0.007,0.343v0.693
			c0,0.871,0.055,1.407,0.164,1.607c0.043,0.081,0.189,0.192,0.439,0.332c0.25,0.14,0.375,0.334,0.375,0.582
			c0,0.209-0.34,0.314-1.021,0.314l-0.328-0.007l-0.678-0.007c-0.947,0-1.502-0.079-1.664-0.236l-0.086-0.157
			c0-0.171,0.1-0.426,0.3-0.764c0.2-0.338,0.332-0.641,0.396-0.91c0.064-0.269,0.096-0.694,0.096-1.275
			c0-0.581-0.087-0.941-0.261-1.082S61.462,15.974,59.858,15.974z"/>
		<path fill="#FFFFFF" d="M71.426,10.632h0.207c0.352,0,0.747,0.376,1.185,1.128c0.152,0.262,0.381,0.805,0.686,1.628
			c0.305,0.824,0.567,1.507,0.786,2.049s0.458,1.189,0.718,1.939s0.447,1.247,0.564,1.492s0.325,0.48,0.625,0.703
			c0.3,0.224,0.45,0.418,0.45,0.582s-0.102,0.273-0.307,0.325c-0.333,0.081-1.159,0.121-2.478,0.121c-0.6,0-0.9-0.129-0.9-0.386
			c0-0.067,0.048-0.23,0.143-0.489c0.095-0.259,0.143-0.451,0.143-0.575c0-0.586-0.14-1.078-0.421-1.478
			c-0.114-0.162-0.474-0.243-1.078-0.243c-1.109,0-1.736,0.036-1.882,0.107c-0.145,0.071-0.293,0.252-0.443,0.543
			c-0.15,0.29-0.225,0.559-0.225,0.807s0.068,0.514,0.204,0.8c0.136,0.286,0.204,0.509,0.204,0.671c0,0.2-0.214,0.3-0.643,0.3
			c-1.019,0-1.7-0.048-2.042-0.143c-0.219-0.062-0.328-0.217-0.328-0.464c0-0.033,0.217-0.24,0.65-0.621
			c0.238-0.209,0.428-0.483,0.571-0.821c1.028-2.452,1.682-4.229,1.96-5.331s0.515-1.819,0.711-2.149
			C70.679,10.798,70.993,10.632,71.426,10.632z M70.02,16.245v0.071c0,0.057,0.221,0.086,0.664,0.086h0.821
			c0.652,0,0.978-0.038,0.978-0.114c0-0.205-0.202-0.833-0.607-1.885c-0.405-1.052-0.613-1.578-0.625-1.578s-0.22,0.527-0.625,1.582
			S70.02,16.074,70.02,16.245z"/>
		<path fill="#FFFFFF" d="M86.508,19.427c0,0.497-0.03,0.79-0.089,0.878s-0.211,0.132-0.453,0.132c-0.081,0-0.283-0.089-0.607-0.268
			s-0.617-0.43-0.878-0.753c-0.109-0.133-0.814-1.15-2.114-3.049c-1.3-1.899-2.066-2.849-2.299-2.849
			c-0.095,0-0.143,0.646-0.143,1.939s0.093,2.455,0.278,3.488c0.052,0.29,0.144,0.526,0.275,0.707
			c0.131,0.181,0.196,0.331,0.196,0.45l-0.057,0.164c-0.138,0.162-0.595,0.243-1.371,0.243h-0.307c-0.614,0-0.978-0.045-1.093-0.136
			c-0.114-0.09-0.171-0.226-0.171-0.407c0-0.1,0.132-0.23,0.396-0.389c0.264-0.159,0.423-0.318,0.475-0.475
			c0.029-0.086,0.043-0.509,0.043-1.271l0.014-0.343l0.021-1.028c0.014-0.681,0.021-1.456,0.021-2.324
			c0-0.869-0.032-1.414-0.096-1.635c-0.064-0.221-0.239-0.438-0.525-0.65c-0.286-0.212-0.428-0.405-0.428-0.578
			c0-0.174,0.068-0.307,0.204-0.4c0.136-0.093,0.399-0.139,0.789-0.139h0.321c0.771,0,1.457,0.326,2.057,0.978
			c0.6,0.652,1.401,1.707,2.403,3.163s1.579,2.185,1.732,2.185c0.181,0,0.271-0.938,0.271-2.814c0-1.395-0.155-2.273-0.464-2.635
			c-0.176-0.209-0.264-0.355-0.264-0.436c0-0.214,0.217-0.321,0.65-0.321c0.866,0,1.463,0.037,1.789,0.111s0.489,0.227,0.489,0.461
			c0,0.138-0.142,0.351-0.425,0.639c-0.283,0.288-0.439,0.49-0.468,0.607s-0.043,0.67-0.043,1.66l-0.093,3.313l-0.007,0.314
			l-0.014,0.314C86.513,18.545,86.508,18.929,86.508,19.427z"/>
		<path fill="#FFFFFF" d="M89.179,11.625c-0.271-0.138-0.407-0.303-0.407-0.496s0.114-0.308,0.343-0.346
			c0.643-0.109,1.75-0.164,3.321-0.164h0.378c1.661,0,2.968,0.437,3.92,1.31c0.952,0.874,1.428,2.074,1.428,3.603
			s-0.476,2.754-1.428,3.678c-0.952,0.924-2.214,1.385-3.785,1.385h-0.564l-0.186-0.007l-0.386-0.007
			c-0.124-0.005-0.245-0.007-0.364-0.007l-1.6-0.05c-0.533,0-0.849-0.031-0.946-0.093c-0.098-0.062-0.146-0.183-0.146-0.364
			c0-0.105,0.138-0.249,0.414-0.432c0.276-0.183,0.45-0.401,0.521-0.653c0.071-0.252,0.107-1.09,0.107-2.514l-0.014-0.914
			l0.021-1.078l0.007-0.179c0.005-0.124,0.007-0.245,0.007-0.364l0.014-0.536c0-0.647-0.05-1.09-0.15-1.328
			C89.619,11.911,89.45,11.763,89.179,11.625z M95.798,15.917v-0.486c0-0.505-0.069-0.997-0.207-1.478
			c-0.295-1.024-0.845-1.714-1.65-2.071c-0.367-0.162-0.766-0.243-1.2-0.243l-0.1,0.007c-0.543,0-0.847,0.121-0.914,0.364
			c-0.014,0.052-0.021,0.764-0.021,2.135v2.742l-0.007,0.107c0,0.071,0,0.143,0,0.214l-0.021,0.75c0,0.071,0,0.143,0,0.214
			l-0.007,0.321v0.114c0,0.4,0.05,0.664,0.15,0.793c0.1,0.129,0.355,0.193,0.764,0.193h0.428c0.4,0,0.782-0.102,1.146-0.307
			c0.364-0.205,0.653-0.451,0.868-0.739c0.214-0.288,0.396-0.666,0.546-1.135C95.723,16.944,95.798,16.445,95.798,15.917z"/>
		<path fill="#FFFFFF" d="M107.745,12.482c0,0.481-0.14,0.721-0.421,0.721c-0.124,0-0.419-0.186-0.885-0.557
			c-0.467-0.371-0.855-0.63-1.164-0.775c-0.309-0.145-0.664-0.218-1.064-0.218c-0.01,0-0.017,0-0.021,0
			c-0.386,0-0.755,0.102-1.107,0.307c-0.99,0.576-1.485,1.814-1.485,3.713c0,0.543,0.086,1.071,0.257,1.585
			c0.5,1.519,1.457,2.278,2.871,2.278c0.005,0,0.01,0,0.014,0c0.647,0,1.319-0.243,2.014-0.728c0.448-0.309,0.705-0.464,0.771-0.464
			c0.233,0,0.35,0.109,0.35,0.328v0.179c0,0.109-0.111,0.331-0.332,0.664s-0.518,0.586-0.889,0.757
			c-0.647,0.3-1.409,0.45-2.285,0.45h-0.243c-0.7,0-1.342-0.129-1.928-0.386c-1.166-0.514-1.976-1.364-2.428-2.549
			c-0.243-0.633-0.364-1.25-0.364-1.85v-0.5c0-0.595,0.117-1.202,0.35-1.821c0.481-1.281,1.304-2.173,2.471-2.678
			c0.614-0.267,1.221-0.4,1.821-0.4h0.236c1.504,0,2.499,0.143,2.985,0.428C107.586,11.154,107.745,11.658,107.745,12.482z"/>
		<path fill="#FFFFFF" d="M112.772,10.661h0.486c1.219,0,2.171,0.233,2.856,0.7c0.686,0.467,1.028,1.124,1.028,1.971
			c0,0.481-0.1,0.902-0.3,1.264c-0.2,0.362-0.402,0.636-0.607,0.821c-0.467,0.424-0.7,0.655-0.7,0.693
			c0,0.176,0.087,0.409,0.261,0.7c0.174,0.29,0.373,0.638,0.596,1.043c0.224,0.405,0.383,0.671,0.478,0.8
			c0.248,0.333,0.517,0.564,0.807,0.693c0.519,0.224,0.778,0.39,0.778,0.5c0,0.305-0.129,0.495-0.386,0.571
			c-0.367,0.109-0.795,0.164-1.285,0.164c-0.49,0-0.885-0.154-1.185-0.461c-0.3-0.307-0.647-0.871-1.043-1.692
			s-0.65-1.303-0.764-1.446c-0.238-0.309-0.55-0.464-0.935-0.464c-0.209,0-0.351,0.104-0.425,0.311s-0.111,0.722-0.111,1.546
			c0,0.2,0.102,0.514,0.307,0.943l0.264,0.478c0.129,0.238,0.193,0.371,0.193,0.4c0,0.248-0.388,0.371-1.164,0.371
			c-1.352,0-2.143-0.033-2.374-0.1c-0.231-0.067-0.346-0.2-0.346-0.4c0-0.2,0.145-0.388,0.436-0.564s0.467-0.384,0.528-0.625
			s0.093-1.285,0.093-3.135s-0.036-2.934-0.107-3.253c-0.071-0.319-0.2-0.569-0.386-0.75c-0.333-0.324-0.5-0.531-0.5-0.621
			c0-0.19,0.199-0.314,0.596-0.371C110.26,10.69,111.23,10.661,112.772,10.661z M113.108,11.611h-0.221
			c-0.324,0-0.52,0.044-0.589,0.132s-0.104,0.318-0.104,0.689v2.592c0,0.19,0.04,0.326,0.121,0.407s0.259,0.121,0.536,0.121h0.278
			l0.057-0.007l0.164-0.007c0.038-0.005,0.074-0.007,0.107-0.007c0.338,0,0.668-0.161,0.989-0.482s0.482-0.741,0.482-1.26v-0.343
			c0-0.514-0.162-0.949-0.486-1.303S113.675,11.611,113.108,11.611z"/>
		<path fill="#FFFFFF" d="M123.748,10.632h0.207c0.352,0,0.747,0.376,1.185,1.128c0.152,0.262,0.381,0.805,0.686,1.628
			c0.305,0.824,0.567,1.507,0.785,2.049c0.219,0.543,0.458,1.189,0.718,1.939s0.448,1.247,0.564,1.492s0.325,0.48,0.625,0.703
			c0.3,0.224,0.45,0.418,0.45,0.582s-0.102,0.273-0.307,0.325c-0.333,0.081-1.159,0.121-2.478,0.121c-0.6,0-0.9-0.129-0.9-0.386
			c0-0.067,0.048-0.23,0.143-0.489c0.095-0.259,0.143-0.451,0.143-0.575c0-0.586-0.14-1.078-0.421-1.478
			c-0.114-0.162-0.474-0.243-1.078-0.243c-1.109,0-1.736,0.036-1.882,0.107c-0.145,0.071-0.293,0.252-0.443,0.543
			c-0.15,0.29-0.225,0.559-0.225,0.807s0.068,0.514,0.204,0.8c0.136,0.286,0.204,0.509,0.204,0.671c0,0.2-0.214,0.3-0.643,0.3
			c-1.019,0-1.7-0.048-2.042-0.143c-0.219-0.062-0.328-0.217-0.328-0.464c0-0.033,0.217-0.24,0.65-0.621
			c0.238-0.209,0.428-0.483,0.571-0.821c1.028-2.452,1.682-4.229,1.96-5.331s0.515-1.819,0.711-2.149S123.315,10.632,123.748,10.632
			z M122.341,16.245v0.071c0,0.057,0.221,0.086,0.664,0.086h0.821c0.652,0,0.978-0.038,0.978-0.114c0-0.205-0.202-0.833-0.607-1.885
			c-0.405-1.052-0.613-1.578-0.625-1.578s-0.22,0.527-0.625,1.582C122.544,15.461,122.341,16.074,122.341,16.245z"/>
		<path fill="#FFFFFF" d="M137.394,11.911v0.229c0,0.395-0.136,0.593-0.407,0.593c-0.024,0-0.359-0.162-1.007-0.486
			s-1.216-0.486-1.707-0.486c-0.162,0-0.353,0.057-0.575,0.171c-0.221,0.114-0.386,0.27-0.493,0.468
			c-0.107,0.198-0.161,0.551-0.161,1.06c0,1.009,0.343,1.514,1.028,1.514c0.209,0,0.472-0.092,0.789-0.275
			c0.317-0.183,0.499-0.275,0.546-0.275c0.367,0,0.55,0.412,0.55,1.235c0,0.452-0.086,0.771-0.257,0.957
			c-0.076,0.086-0.164,0.129-0.264,0.129s-0.289-0.056-0.568-0.168s-0.472-0.168-0.582-0.168c-0.457,0-0.797,0.105-1.021,0.314
			c-0.152,0.143-0.229,0.44-0.229,0.893c0,0.452,0.064,0.891,0.193,1.318c0.129,0.426,0.251,0.753,0.368,0.982
			s0.175,0.345,0.175,0.35c0,0.252-0.248,0.378-0.743,0.378l-0.243-0.007h-0.25c-1.185,0-1.938-0.05-2.257-0.15
			c-0.209-0.067-0.314-0.188-0.314-0.364c0-0.176,0.149-0.348,0.446-0.514c0.298-0.167,0.472-0.369,0.525-0.607
			c0.019-0.09,0.029-1.077,0.029-2.96s-0.035-3.008-0.104-3.374s-0.242-0.691-0.518-0.975c-0.276-0.283-0.414-0.503-0.414-0.661
			c0-0.157,0.121-0.255,0.364-0.293c0.428-0.071,1.504-0.107,3.228-0.107l0.771-0.021h0.771l0.25,0.007
			c0.938,0,1.49,0.055,1.657,0.164C137.254,10.968,137.394,11.344,137.394,11.911z"/>
		<path fill="#FFFFFF" d="M140.836,11.761c-0.395,0-0.812,0.181-1.25,0.543c-0.7,0.581-1.069,0.871-1.107,0.871
			c-0.248,0-0.371-0.155-0.371-0.464v-0.221c0-0.514,0.043-0.978,0.129-1.392c0.043-0.214,0.139-0.343,0.289-0.386
			c0.15-0.043,1.582-0.064,4.295-0.064l2.678-0.014h0.471c0.514,0,0.82,0.083,0.918,0.25c0.098,0.167,0.146,0.531,0.146,1.093v0.457
			c0,0.505-0.117,0.757-0.35,0.757c-0.205,0-0.452-0.164-0.743-0.493c-0.29-0.328-0.557-0.565-0.8-0.711
			c-0.243-0.145-0.562-0.218-0.957-0.218c-0.314,0-0.497,0.207-0.55,0.621c-0.019,0.143-0.029,1.206-0.029,3.188
			s0.026,3.081,0.079,3.296c0.052,0.214,0.248,0.444,0.586,0.689c0.338,0.245,0.507,0.452,0.507,0.621s-0.086,0.275-0.257,0.318
			c-0.171,0.043-0.726,0.064-1.664,0.064h-1.2c-0.471,0-0.794-0.017-0.968-0.05c-0.174-0.033-0.261-0.129-0.261-0.286
			s0.162-0.381,0.486-0.671c0.324-0.29,0.514-0.544,0.571-0.761c0.057-0.217,0.086-1.296,0.086-3.238s-0.019-3.012-0.057-3.21
			s-0.104-0.345-0.196-0.443S141.065,11.761,140.836,11.761z"/>
		<path fill="#FFFFFF" d="M155.561,11.896c0,0.319-0.045,0.527-0.136,0.625c-0.09,0.098-0.229,0.146-0.414,0.146l-0.129-0.064
			l-0.15-0.1l-0.171-0.1c-0.167-0.095-0.487-0.226-0.96-0.393s-0.915-0.25-1.325-0.25c-0.409,0-0.708,0.148-0.896,0.443
			c-0.188,0.295-0.282,0.902-0.282,1.821c0,0.262,0.081,0.471,0.243,0.628c0.162,0.157,0.386,0.236,0.671,0.236
			c0.286,0,0.601-0.1,0.946-0.3c0.345-0.2,0.59-0.3,0.736-0.3s0.273,0.096,0.382,0.289c0.109,0.193,0.164,0.423,0.164,0.689
			c0,0.719-0.079,1.162-0.236,1.328l-0.193,0.107c-0.281,0-0.505-0.064-0.671-0.193c-0.367-0.281-0.636-0.421-0.807-0.421
			c-0.543,0-0.907,0.114-1.093,0.343c-0.09,0.114-0.136,0.506-0.136,1.175c0,0.669,0.136,1.177,0.407,1.525
			c0.143,0.186,0.457,0.278,0.943,0.278s1.106-0.165,1.86-0.496s1.187-0.496,1.296-0.496c0.205,0,0.307,0.193,0.307,0.578v0.257
			c0,0.133-0.048,0.319-0.143,0.557s-0.243,0.424-0.443,0.557c-0.2,0.133-0.528,0.2-0.985,0.2h-5.177
			c-0.79,0-1.185-0.102-1.185-0.307V20.03c0-0.162,0.146-0.324,0.439-0.486c0.293-0.162,0.464-0.337,0.514-0.525
			s0.075-1.282,0.075-3.281s-0.033-3.132-0.1-3.399c-0.067-0.267-0.233-0.512-0.5-0.736c-0.267-0.224-0.4-0.445-0.4-0.664
			c0-0.157,0.171-0.246,0.514-0.268c0.343-0.021,1.469-0.032,3.378-0.032l1.857-0.007h0.3c0.481,0,0.819,0.069,1.014,0.207
			C155.399,11.068,155.561,11.42,155.561,11.896z"/>
		<path fill="#FFFFFF" d="M157.553,11.625c-0.271-0.138-0.407-0.303-0.407-0.496s0.114-0.308,0.343-0.346
			c0.643-0.109,1.75-0.164,3.321-0.164h0.378c1.661,0,2.968,0.437,3.92,1.31c0.952,0.874,1.428,2.074,1.428,3.603
			s-0.476,2.754-1.428,3.678c-0.952,0.924-2.214,1.385-3.785,1.385h-0.564l-0.186-0.007l-0.386-0.007
			c-0.124-0.005-0.245-0.007-0.364-0.007l-1.6-0.05c-0.533,0-0.849-0.031-0.946-0.093c-0.098-0.062-0.146-0.183-0.146-0.364
			c0-0.105,0.138-0.249,0.414-0.432c0.276-0.183,0.45-0.401,0.521-0.653c0.071-0.252,0.107-1.09,0.107-2.514l-0.014-0.914
			l0.021-1.078l0.007-0.179c0.005-0.124,0.007-0.245,0.007-0.364l0.014-0.536c0-0.647-0.05-1.09-0.15-1.328
			C157.994,11.911,157.825,11.763,157.553,11.625z M164.173,15.917v-0.486c0-0.505-0.069-0.997-0.207-1.478
			c-0.295-1.024-0.845-1.714-1.65-2.071c-0.367-0.162-0.766-0.243-1.2-0.243l-0.1,0.007c-0.543,0-0.847,0.121-0.914,0.364
			c-0.014,0.052-0.021,0.764-0.021,2.135v2.742l-0.007,0.107c0,0.071,0,0.143,0,0.214l-0.021,0.75c0,0.071,0,0.143,0,0.214
			l-0.007,0.321v0.114c0,0.4,0.05,0.664,0.15,0.793c0.1,0.129,0.355,0.193,0.764,0.193h0.428c0.4,0,0.782-0.102,1.146-0.307
			c0.364-0.205,0.653-0.451,0.868-0.739c0.214-0.288,0.396-0.666,0.546-1.135S164.173,16.445,164.173,15.917z"/>
		<path fill="#FFFFFF" d="M176.612,19.494c0.985-0.005,1.478-0.502,1.478-1.492c0-0.533-0.081-0.902-0.243-1.107
			c-0.276-0.357-0.414-0.571-0.414-0.643c0-0.281,0.445-0.421,1.335-0.421c0.657,0,1.176,0.045,1.557,0.136
			c0.267,0.062,0.4,0.198,0.4,0.407c0,0.119-0.058,0.271-0.175,0.457s-0.184,0.336-0.204,0.45c-0.019,0.114-0.054,0.415-0.104,0.903
			s-0.077,0.751-0.082,0.789c-0.062,0.438-0.18,0.736-0.353,0.893s-0.468,0.298-0.882,0.421c-0.871,0.262-1.683,0.393-2.435,0.393
			h-0.286c-0.666,0-1.309-0.129-1.928-0.386c-1.195-0.495-2.014-1.335-2.456-2.521c-0.229-0.614-0.343-1.271-0.343-1.971v-0.3
			c0-0.666,0.133-1.319,0.4-1.957c0.543-1.309,1.435-2.199,2.678-2.671c0.571-0.219,1.219-0.328,1.942-0.328
			c0.229,0,0.495,0.021,0.8,0.064c0.305,0.043,0.691,0.064,1.16,0.064s0.843,0.104,1.121,0.311c0.279,0.207,0.418,0.575,0.418,1.103
			c0,0.728-0.143,1.093-0.428,1.093c-0.133,0-0.447-0.186-0.943-0.557c-0.495-0.371-0.876-0.614-1.143-0.728
			c-0.267-0.114-0.619-0.171-1.057-0.171c-0.438,0.005-0.833,0.112-1.185,0.321c-1.047,0.628-1.571,1.785-1.571,3.47
			c0,1.195,0.283,2.157,0.85,2.885S175.784,19.494,176.612,19.494z"/>
		<path fill="#FFFFFF" d="M186.31,20.673c-0.681,0-1.285-0.143-1.814-0.428c-1-0.543-1.571-1.435-1.714-2.678l-0.021-0.293
			c-0.005-0.1-0.007-0.298-0.007-0.593l0.021-1.435v-1.6c0-0.876-0.024-1.37-0.071-1.482c-0.048-0.112-0.22-0.248-0.518-0.407
			c-0.298-0.159-0.446-0.337-0.446-0.532v-0.229c0-0.162,0.176-0.259,0.528-0.293c0.714-0.071,1.516-0.107,2.406-0.107
			c0.571,0,0.857,0.107,0.857,0.321c0,0.01-0.085,0.188-0.253,0.536c-0.169,0.348-0.286,0.722-0.35,1.125
			c-0.064,0.402-0.096,1.369-0.096,2.899s0.119,2.539,0.357,3.024c0.333,0.681,0.933,1.021,1.8,1.021s1.492-0.324,1.878-0.971
			c0.281-0.471,0.421-1.579,0.421-3.324s-0.117-2.884-0.35-3.417l-0.1-0.179l-0.121-0.164c-0.143-0.224-0.214-0.376-0.214-0.457
			c0-0.181,0.107-0.293,0.321-0.336c0.09-0.019,0.465-0.029,1.125-0.029s1.149,0.062,1.467,0.186
			c0.129,0.048,0.193,0.177,0.193,0.389s-0.09,0.387-0.271,0.525c-0.376,0.286-0.586,0.499-0.628,0.639
			c-0.043,0.14-0.064,0.796-0.064,1.967l0.014,0.85l0.007,0.286c0,1.143-0.057,1.995-0.171,2.556
			c-0.114,0.562-0.338,1.04-0.671,1.435c-0.686,0.795-1.754,1.193-3.206,1.193H186.31z"/>
		<path fill="#FFFFFF" d="M193.651,20.466c-0.609,0-0.914-0.098-0.914-0.293c0-0.195,0.158-0.403,0.475-0.625
			c0.317-0.221,0.511-0.47,0.582-0.746c0.071-0.276,0.107-1.367,0.107-3.274s-0.019-2.934-0.057-3.081
			c-0.086-0.338-0.248-0.59-0.486-0.757c-0.433-0.305-0.65-0.543-0.65-0.714v-0.1c0-0.171,0.6-0.257,1.8-0.257l0.486-0.021h0.486
			l0.164,0.007h0.164c0.543,0,0.872,0.02,0.989,0.061s0.175,0.163,0.175,0.368c0,0.124-0.176,0.328-0.528,0.614
			c-0.19,0.157-0.319,0.381-0.386,0.671s-0.1,1.412-0.1,3.363s0.026,3.035,0.079,3.249c0.052,0.214,0.224,0.445,0.514,0.693
			c0.29,0.248,0.436,0.452,0.436,0.614c0,0.19-0.19,0.286-0.571,0.286h-0.5l-0.164-0.007h-0.336l-0.486-0.014l-0.643-0.014
			l-0.314-0.014C193.867,20.468,193.76,20.466,193.651,20.466z"/>
		<path fill="#FFFFFF" d="M200.706,11.761c-0.395,0-0.812,0.181-1.25,0.543c-0.7,0.581-1.069,0.871-1.107,0.871
			c-0.248,0-0.371-0.155-0.371-0.464v-0.221c0-0.514,0.043-0.978,0.129-1.392c0.043-0.214,0.139-0.343,0.289-0.386
			c0.15-0.043,1.582-0.064,4.295-0.064l2.678-0.014h0.471c0.514,0,0.82,0.083,0.918,0.25c0.098,0.167,0.146,0.531,0.146,1.093v0.457
			c0,0.505-0.117,0.757-0.35,0.757c-0.205,0-0.452-0.164-0.743-0.493c-0.29-0.328-0.557-0.565-0.8-0.711
			c-0.243-0.145-0.562-0.218-0.957-0.218c-0.314,0-0.497,0.207-0.55,0.621c-0.019,0.143-0.029,1.206-0.029,3.188
			s0.026,3.081,0.079,3.296c0.052,0.214,0.248,0.444,0.586,0.689c0.338,0.245,0.507,0.452,0.507,0.621s-0.086,0.275-0.257,0.318
			c-0.171,0.043-0.726,0.064-1.664,0.064h-1.2c-0.471,0-0.794-0.017-0.968-0.05c-0.174-0.033-0.261-0.129-0.261-0.286
			s0.162-0.381,0.486-0.671c0.324-0.29,0.514-0.544,0.571-0.761c0.057-0.217,0.086-1.296,0.086-3.238s-0.019-3.012-0.057-3.21
			s-0.104-0.345-0.196-0.443S200.935,11.761,200.706,11.761z"/>
		<path fill="#FFFFFF" d="M211.425,10.632h0.207c0.352,0,0.747,0.376,1.185,1.128c0.152,0.262,0.381,0.805,0.686,1.628
			c0.305,0.824,0.567,1.507,0.786,2.049s0.458,1.189,0.718,1.939c0.259,0.75,0.447,1.247,0.564,1.492s0.325,0.48,0.625,0.703
			c0.3,0.224,0.45,0.418,0.45,0.582s-0.102,0.273-0.307,0.325c-0.333,0.081-1.159,0.121-2.478,0.121c-0.6,0-0.9-0.129-0.9-0.386
			c0-0.067,0.048-0.23,0.143-0.489c0.095-0.259,0.143-0.451,0.143-0.575c0-0.586-0.14-1.078-0.421-1.478
			c-0.114-0.162-0.474-0.243-1.078-0.243c-1.109,0-1.736,0.036-1.882,0.107s-0.293,0.252-0.443,0.543
			c-0.15,0.29-0.225,0.559-0.225,0.807s0.068,0.514,0.204,0.8c0.136,0.286,0.204,0.509,0.204,0.671c0,0.2-0.214,0.3-0.643,0.3
			c-1.019,0-1.7-0.048-2.042-0.143c-0.219-0.062-0.328-0.217-0.328-0.464c0-0.033,0.217-0.24,0.65-0.621
			c0.238-0.209,0.428-0.483,0.571-0.821c1.028-2.452,1.682-4.229,1.96-5.331c0.278-1.102,0.515-1.819,0.711-2.149
			C210.677,10.798,210.991,10.632,211.425,10.632z M210.018,16.245v0.071c0,0.057,0.221,0.086,0.664,0.086h0.821
			c0.652,0,0.978-0.038,0.978-0.114c0-0.205-0.202-0.833-0.607-1.885c-0.405-1.052-0.613-1.578-0.625-1.578s-0.22,0.527-0.625,1.582
			C210.22,15.461,210.018,16.074,210.018,16.245z"/>
		<path fill="#FFFFFF" d="M221.179,10.661h0.486c1.219,0,2.171,0.233,2.856,0.7c0.686,0.467,1.028,1.124,1.028,1.971
			c0,0.481-0.1,0.902-0.3,1.264s-0.402,0.636-0.607,0.821c-0.467,0.424-0.7,0.655-0.7,0.693c0,0.176,0.087,0.409,0.261,0.7
			c0.174,0.29,0.373,0.638,0.596,1.043c0.224,0.405,0.383,0.671,0.478,0.8c0.248,0.333,0.517,0.564,0.807,0.693
			c0.519,0.224,0.778,0.39,0.778,0.5c0,0.305-0.129,0.495-0.386,0.571c-0.367,0.109-0.795,0.164-1.285,0.164
			s-0.885-0.154-1.185-0.461c-0.3-0.307-0.647-0.871-1.043-1.692c-0.395-0.821-0.65-1.303-0.764-1.446
			c-0.238-0.309-0.55-0.464-0.935-0.464c-0.209,0-0.351,0.104-0.425,0.311s-0.111,0.722-0.111,1.546c0,0.2,0.102,0.514,0.307,0.943
			l0.264,0.478c0.129,0.238,0.193,0.371,0.193,0.4c0,0.248-0.388,0.371-1.164,0.371c-1.352,0-2.143-0.033-2.374-0.1
			c-0.231-0.067-0.346-0.2-0.346-0.4c0-0.2,0.145-0.388,0.436-0.564c0.29-0.176,0.467-0.384,0.528-0.625s0.093-1.285,0.093-3.135
			s-0.036-2.934-0.107-3.253c-0.071-0.319-0.2-0.569-0.386-0.75c-0.333-0.324-0.5-0.531-0.5-0.621c0-0.19,0.199-0.314,0.596-0.371
			C218.667,10.69,219.637,10.661,221.179,10.661z M221.515,11.611h-0.221c-0.324,0-0.52,0.044-0.589,0.132s-0.104,0.318-0.104,0.689
			v2.592c0,0.19,0.04,0.326,0.121,0.407s0.259,0.121,0.536,0.121h0.279l0.057-0.007l0.164-0.007
			c0.038-0.005,0.074-0.007,0.107-0.007c0.338,0,0.668-0.161,0.989-0.482c0.321-0.321,0.482-0.741,0.482-1.26v-0.343
			c0-0.514-0.162-0.949-0.486-1.303C222.526,11.788,222.081,11.611,221.515,11.611z"/>
		<path fill="#FFFFFF" d="M231.219,10.511c1.271,0,2.126,0.112,2.564,0.336c0.328,0.167,0.493,0.595,0.493,1.285
			s-0.117,1.035-0.35,1.035c-0.19,0-0.502-0.201-0.935-0.603c-0.433-0.402-0.762-0.665-0.985-0.789
			c-0.224-0.124-0.515-0.186-0.875-0.186c-0.359,0-0.666,0.117-0.921,0.35c-0.255,0.233-0.382,0.512-0.382,0.835
			c0,0.433,0.238,0.821,0.714,1.164c0.238,0.171,0.788,0.45,1.65,0.835c0.862,0.386,1.476,0.764,1.842,1.135
			c0.519,0.528,0.778,1.124,0.778,1.785c0,1.381-0.683,2.311-2.049,2.792c-0.405,0.143-0.819,0.214-1.243,0.214h-0.257
			c-0.524,0-1.104-0.06-1.742-0.179c-0.638-0.119-1.04-0.236-1.207-0.35c-0.309-0.214-0.464-0.712-0.464-1.492v-0.243
			c0-0.505,0.136-0.757,0.407-0.757c0.19,0,0.493,0.243,0.907,0.728s0.763,0.809,1.046,0.971c0.283,0.162,0.645,0.243,1.085,0.243
			c0.44,0,0.811-0.126,1.11-0.378c0.3-0.252,0.45-0.526,0.45-0.821c0-0.443-0.133-0.807-0.4-1.093
			c-0.267-0.286-0.797-0.612-1.592-0.978c-0.795-0.367-1.345-0.662-1.65-0.885c-0.838-0.619-1.257-1.362-1.257-2.228
			c0-0.181,0.019-0.369,0.057-0.564c0.157-0.819,0.683-1.438,1.578-1.857c0.438-0.205,0.895-0.307,1.371-0.307H231.219z"/>
	</g>
</g>
</svg>
