<?xml version="1.0" encoding="utf-8"?>
<!-- Generator: Adobe Illustrator 17.0.0, SVG Export Plug-In . SVG Version: 6.00 Build 0)  -->
<!DOCTYPE svg PUBLIC "-//W3C//DTD SVG 1.1//EN" "http://www.w3.org/Graphics/SVG/1.1/DTD/svg11.dtd">
<svg version="1.1" id="Layer_1" xmlns="http://www.w3.org/2000/svg" xmlns:xlink="http://www.w3.org/1999/xlink" x="0px" y="0px"
	 width="14.25px" height="15.125px" viewBox="0 0 14.25 15.125" enable-background="new 0 0 14.25 15.125" xml:space="preserve">
<g>
	
		<rect x="7.912" y="5.306" transform="matrix(-0.7069 0.7073 -0.7073 -0.7069 18.5134 3.9816)" fill="#303030" width="1.039" height="1.042"/>
	
		<rect x="10.168" y="7.902" transform="matrix(0.7075 -0.7067 0.7067 0.7075 -3.6091 10.9416)" opacity="0.7" fill="#303030" enable-background="new    " width="2.491" height="3.858"/>
	
		<rect x="10.168" y="3.414" transform="matrix(0.7075 0.7067 -0.7067 0.7075 7.1142 -6.5032)" opacity="0.7" fill="#303030" enable-background="new    " width="2.491" height="3.858"/>
	<polygon fill="#303030" points="9.168,0.37 11.895,3.098 9.168,5.826 8.434,5.089 7.695,5.826 4.968,3.098 7.695,0.37 8.434,1.107 
			"/>
	<g>
		<polygon fill="#303030" points="9.168,0.37 11.895,3.098 9.168,5.826 8.434,5.089 7.695,5.826 4.968,3.098 7.695,0.37 
			8.434,1.107 		"/>
	</g>
	
		<rect x="1.278" y="5.658" transform="matrix(-0.7071 0.7072 -0.7072 -0.7071 10.8403 10.6831)" fill="#303030" width="3.858" height="3.858"/>
	<g>
		
			<rect x="1.278" y="5.658" transform="matrix(-0.7071 0.7072 -0.7072 -0.7071 10.8403 10.6831)" fill="#303030" width="3.858" height="3.858"/>
	</g>
	
		<rect x="7.911" y="8.828" transform="matrix(0.709 -0.7052 0.7052 0.709 -4.1381 8.6662)" fill="#303030" width="1.041" height="1.039"/>
	<polygon fill="#303030" points="9.168,14.803 8.434,14.066 7.695,14.803 4.968,12.076 7.695,9.348 8.434,10.085 9.168,9.348 
		11.895,12.076 	"/>
	<g>
		<polygon fill="#303030" points="9.168,14.803 8.434,14.066 7.695,14.803 4.968,12.076 7.695,9.348 8.434,10.085 9.168,9.348 
			11.895,12.076 		"/>
	</g>
</g>
</svg>
