<?xml version="1.0" encoding="utf-8"?>
<!-- Generator: Adobe Illustrator 17.0.0, SVG Export Plug-In . SVG Version: 6.00 Build 0)  -->
<!DOCTYPE svg PUBLIC "-//W3C//DTD SVG 1.1//EN" "http://www.w3.org/Graphics/SVG/1.1/DTD/svg11.dtd">
<svg version="1.1" id="Layer_1" xmlns="http://www.w3.org/2000/svg" xmlns:xlink="http://www.w3.org/1999/xlink" x="0px" y="0px"
	 width="14.25px" height="15.125px" viewBox="0 0 14.25 15.125" enable-background="new 0 0 14.25 15.125" xml:space="preserve">
<g>
	
		<rect x="5.185" y="5.304" transform="matrix(0.7069 0.7073 -0.7073 0.7069 5.7922 -2.3275)" fill="#303030" width="1.039" height="1.042"/>
	
		<rect x="1.479" y="7.902" transform="matrix(-0.7075 -0.7067 0.7067 -0.7075 -2.2964 18.7117)" opacity="0.7" fill="#303030" enable-background="new    " width="2.491" height="3.858"/>
	
		<rect x="1.478" y="3.414" transform="matrix(-0.7075 0.7067 -0.7067 -0.7075 8.4269 7.1984)" opacity="0.7" fill="#303030" enable-background="new    " width="2.491" height="3.858"/>
	<polygon fill="#303030" points="4.969,0.37 2.241,3.098 4.969,5.826 5.703,5.089 6.441,5.826 9.169,3.098 6.441,0.37 5.703,1.107 	
		"/>
	<g>
		<polygon fill="#303030" points="4.969,0.37 2.241,3.098 4.969,5.826 5.703,5.089 6.441,5.826 9.169,3.098 6.441,0.37 5.703,1.107 
					"/>
	</g>
	
		<rect x="9.001" y="5.657" transform="matrix(0.7071 0.7072 -0.7072 0.7071 8.5665 -5.507)" fill="#303030" width="3.858" height="3.858"/>
	<g>
		
			<rect x="9.001" y="5.657" transform="matrix(0.7071 0.7072 -0.7072 0.7071 8.5665 -5.507)" fill="#303030" width="3.858" height="3.858"/>
	</g>
	
		<rect x="5.185" y="8.828" transform="matrix(-0.709 -0.7052 0.7052 -0.709 3.1586 19.9977)" fill="#303030" width="1.041" height="1.039"/>
	<polygon fill="#303030" points="4.969,14.803 5.703,14.066 6.441,14.803 9.169,12.076 6.441,9.348 5.703,10.085 4.969,9.348 
		2.241,12.076 	"/>
	<g>
		<polygon fill="#303030" points="4.969,14.803 5.703,14.066 6.441,14.803 9.169,12.076 6.441,9.348 5.703,10.085 4.969,9.348 
			2.241,12.076 		"/>
	</g>
</g>
</svg>
